<?xml version="1.0" encoding="UTF-8"?>
<!DOCTYPE svg PUBLIC "-//W3C//DTD SVG 1.1//EN" "http://www.w3.org/Graphics/SVG/1.1/DTD/svg11.dtd">
<svg xmlns="http://www.w3.org/2000/svg" version="1.1" width="375px" height="375px" style="shape-rendering:geometricPrecision; text-rendering:geometricPrecision; image-rendering:optimizeQuality; fill-rule:evenodd; clip-rule:evenodd" xmlns:xlink="http://www.w3.org/1999/xlink">
<g><path style="opacity:0.027" fill="rgba(0, 0, 0, .54)" d="M 153.5,9.5 C 154.946,8.38705 156.613,8.22039 158.5,9C 156.866,9.49351 155.199,9.66018 153.5,9.5 Z"/></g>
<g><path style="opacity:1" fill="rgba(0, 0, 0, .54)" d="M 269.5,28.5 C 278.635,34.2387 287.635,40.2387 296.5,46.5C 296.5,47.1667 296.833,47.5 297.5,47.5C 299.142,48.803 300.809,50.1363 302.5,51.5C 302.5,52.1667 302.833,52.5 303.5,52.5C 309.5,57.8333 315.167,63.5 320.5,69.5C 320.5,70.1667 320.833,70.5 321.5,70.5C 351.935,107.18 366.268,149.513 364.5,197.5C 363.517,201.298 363.183,205.298 363.5,209.5C 361.523,219.048 359.523,228.715 357.5,238.5C 356.596,239.209 356.263,240.209 356.5,241.5C 355.596,242.209 355.263,243.209 355.5,244.5C 351.479,254.216 347.146,263.883 342.5,273.5C 341.662,273.842 341.328,274.508 341.5,275.5C 339.412,277.336 338.079,279.669 337.5,282.5C 336.833,282.5 336.5,282.833 336.5,283.5C 334.808,285.205 333.475,287.205 332.5,289.5C 331.662,289.842 331.328,290.508 331.5,291.5C 329.457,292.579 328.124,294.246 327.5,296.5C 326.833,296.5 326.5,296.833 326.5,297.5C 325.662,297.842 325.328,298.508 325.5,299.5C 324.833,299.5 324.5,299.833 324.5,300.5C 323.833,300.5 323.5,300.833 323.5,301.5C 322.833,301.5 322.5,301.833 322.5,302.5C 320.457,303.579 319.124,305.246 318.5,307.5C 317.833,307.5 317.5,307.833 317.5,308.5C 316.833,308.5 316.5,308.833 316.5,309.5C 315.833,309.5 315.5,309.833 315.5,310.5C 314.833,310.5 314.5,310.833 314.5,311.5C 313.833,311.5 313.5,311.833 313.5,312.5C 312.833,312.5 312.5,312.833 312.5,313.5C 311.833,313.5 311.5,313.833 311.5,314.5C 310.833,314.5 310.5,314.833 310.5,315.5C 309.833,315.5 309.5,315.833 309.5,316.5C 308.833,316.5 308.5,316.833 308.5,317.5C 307.833,317.5 307.5,317.833 307.5,318.5C 306.833,318.5 306.5,318.833 306.5,319.5C 305.833,319.5 305.5,319.833 305.5,320.5C 303.246,321.124 301.579,322.457 300.5,324.5C 299.833,324.5 299.5,324.833 299.5,325.5C 295.762,327.697 292.429,330.364 289.5,333.5C 288.508,333.328 287.842,333.662 287.5,334.5C 285.205,335.475 283.205,336.808 281.5,338.5C 280.833,338.5 280.5,338.833 280.5,339.5C 279.508,339.328 278.842,339.662 278.5,340.5C 276.973,340.427 275.973,341.094 275.5,342.5C 274.508,342.328 273.842,342.662 273.5,343.5C 257.776,351.626 241.443,357.959 224.5,362.5C 214.277,363.715 204.111,365.048 194,366.5C 188.584,365.361 183.084,365.194 177.5,366C 176.944,366.383 176.611,366.883 176.5,367.5C 171.968,367.818 167.634,367.485 163.5,366.5C 165.527,366.662 167.527,366.495 169.5,366C 158.103,364.154 146.77,361.987 135.5,359.5C 131.784,357.595 127.784,356.261 123.5,355.5C 103.95,347.394 85.9504,336.727 69.5,323.5C 69.5,322.833 69.1667,322.5 68.5,322.5C 62.1667,316.833 56.1667,310.833 50.5,304.5C 50.5,303.833 50.1667,303.5 49.5,303.5C 41.995,293.812 34.995,283.812 28.5,273.5C 28.6716,272.508 28.3382,271.842 27.5,271.5C 27.6716,270.508 27.3382,269.842 26.5,269.5C 26.6716,268.508 26.3382,267.842 25.5,267.5C 25.6716,266.508 25.3382,265.842 24.5,265.5C 24.6716,264.508 24.3382,263.842 23.5,263.5C 23.6716,262.508 23.3382,261.842 22.5,261.5C 21.9251,258.088 20.5918,255.088 18.5,252.5C 17.4054,247.216 15.7387,242.216 13.5,237.5C -2.33787,174.537 10.3288,118.203 51.5,68.5C 52.1667,68.5 52.5,68.1667 52.5,67.5C 57.1667,63.5 61.5,59.1667 65.5,54.5C 66.1667,54.5 66.5,54.1667 66.5,53.5C 121.029,8.09702 182.029,-3.06965 249.5,20C 256.304,22.5701 262.97,25.4035 269.5,28.5 Z"/></g>
<g><path style="opacity:0.012" fill="#5584d0" d="M 212.5,9.5 C 213.946,8.38705 215.613,8.22039 217.5,9C 215.866,9.49351 214.199,9.66018 212.5,9.5 Z"/></g>
<g><path style="opacity:0.027" fill="#5b98d8" d="M 130.5,15.5 C 130.897,14.475 131.563,14.3083 132.5,15C 131.906,15.4643 131.239,15.631 130.5,15.5 Z"/></g>
<g><path style="opacity:0.004" fill="#9fc0e7" d="M 269.5,28.5 C 270.167,27.1667 270.833,27.1667 271.5,28.5C 270.833,28.5 270.167,28.5 269.5,28.5 Z"/></g>
<g><path style="opacity:0.027" fill="#5394d6" d="M 271.5,28.5 C 272.833,29.1667 272.833,29.1667 271.5,28.5 Z"/></g>
<g><path style="opacity:0.027" fill="#7fb0e1" d="M 273.5,29.5 C 274.833,30.1667 274.833,30.1667 273.5,29.5 Z"/></g>
<g><path style="opacity:0.016" fill="#6a85c9" d="M 296.5,46.5 C 297.497,45.2875 298.497,45.4542 299.5,47C 298.906,47.4643 298.239,47.631 297.5,47.5C 296.833,47.5 296.5,47.1667 296.5,46.5 Z"/></g>
<g><path style="opacity:0.004" fill="#97a6d7" d="M 302.5,51.5 C 303.497,50.2875 304.497,50.4542 305.5,52C 304.906,52.4643 304.239,52.631 303.5,52.5C 302.833,52.5 302.5,52.1667 302.5,51.5 Z"/></g>
<g><path style="opacity:0.016" fill="#7696d4" d="M 66.5,53.5 C 65.8333,53.5 65.5,53.8333 65.5,54.5C 63.0248,54.2533 63.0248,53.5866 65.5,52.5C 66.1067,52.6236 66.44,52.9569 66.5,53.5 Z"/></g>
<g><path style="opacity:0.024" fill="#7792d3" d="M 52.5,67.5 C 51.8333,67.5 51.5,67.8333 51.5,68.5C 50.2875,67.5029 50.4542,66.5029 52,65.5C 52.4643,66.0944 52.631,66.7611 52.5,67.5 Z"/></g>
<g><path style="opacity:0.008" fill="#7e9fd9" d="M 321.5,70.5 C 320.833,70.5 320.5,70.1667 320.5,69.5C 320.747,67.0248 321.413,67.0248 322.5,69.5C 322.376,70.1067 322.043,70.44 321.5,70.5 Z"/></g>
<g><path style="opacity:1" fill="#fefefe" d="M 130.5,91.5 C 137.409,91.311 143.743,93.1443 149.5,97C 194.167,123 238.833,149 283.5,175C 293.063,188.753 290.729,200.086 276.5,209C 233.167,234 189.833,259 146.5,284C 130.785,291.325 120.285,286.825 115,270.5C 114.333,216.167 114.333,161.833 115,107.5C 117.685,99.6498 122.852,94.3165 130.5,91.5 Z"/></g>
<g><path style="opacity:0.031" fill="#5683cd" d="M 364.5,164.5 C 363.371,162.372 363.204,160.039 364,157.5C 364.497,159.81 364.663,162.143 364.5,164.5 Z"/></g>
<g><path style="opacity:0.027" fill="#437dcd" d="M 364.5,164.5 C 365.634,166.966 365.801,169.633 365,172.5C 364.503,169.854 364.336,167.187 364.5,164.5 Z"/></g>
<g><path style="opacity:0.004" fill="#bfd8ef" d="M 365.5,174.5 C 366.833,175.167 366.833,175.167 365.5,174.5 Z"/></g>
<g><path style="opacity:0.024" fill="#417fce" d="M 365.5,197.5 C 365.334,190.492 365.5,183.492 366,176.5C 366.821,183.679 366.655,190.679 365.5,197.5 Z"/></g>
<g><path style="opacity:0.008" fill="#a1b6e3" d="M 5.5,197.5 C 4.34602,191.013 4.17935,184.346 5,177.5C 5.49958,184.158 5.66625,190.825 5.5,197.5 Z"/></g>
<g><path style="opacity:0.004" fill="#bfd8ef" d="M 364.5,197.5 C 364.833,197.5 365.167,197.5 365.5,197.5C 365.5,197.833 365.5,198.167 365.5,198.5C 365.167,198.167 364.833,197.833 364.5,197.5 Z"/></g>
<g><path style="opacity:0.004" fill="#bfd8ef" d="M 365.5,198.5 C 366.833,199.167 366.833,199.167 365.5,198.5 Z"/></g>
<g><path style="opacity:0.031" fill="#4c85d0" d="M 364.5,209.5 C 364.336,206.813 364.503,204.146 365,201.5C 365.801,204.367 365.634,207.034 364.5,209.5 Z"/></g>
<g><path style="opacity:0.004" fill="#8aa5d9" d="M 5.5,197.5 C 6.48342,201.298 6.81675,205.298 6.5,209.5C 5.51658,205.702 5.18325,201.702 5.5,197.5 Z"/></g>
<g><path style="opacity:0.024" fill="#5f96d7" d="M 6.5,209.5 C 7.61295,210.946 7.77961,212.613 7,214.5C 6.50649,212.866 6.33982,211.199 6.5,209.5 Z"/></g>
<g><path style="opacity:0.029" fill="#5f90d4" d="M 363.5,209.5 C 363.833,209.5 364.167,209.5 364.5,209.5C 364.167,218.833 363.833,218.833 363.5,209.5 Z"/></g>
<g><path style="opacity:0.016" fill="#517fcf" d="M 8.5,221.5 C 7.38705,220.054 7.22039,218.387 8,216.5C 8.49351,218.134 8.66018,219.801 8.5,221.5 Z"/></g>
<g><path style="opacity:0.004" fill="#99b7e4" d="M 8.5,221.5 C 9.45115,222.919 9.78448,224.585 9.5,226.5C 8.54885,225.081 8.21552,223.415 8.5,221.5 Z"/></g>
<g><path style="opacity:0.024" fill="#689bd9" d="M 9.5,226.5 C 10.4345,227.568 10.7678,228.901 10.5,230.5C 9.56552,229.432 9.23219,228.099 9.5,226.5 Z"/></g>
<g><path style="opacity:0.004" fill="#99b7e4" d="M 10.5,230.5 C 11.4345,231.568 11.7678,232.901 11.5,234.5C 10.5655,233.432 10.2322,232.099 10.5,230.5 Z"/></g>
<g><path style="opacity:0.025" fill="#6799d8" d="M 11.5,234.5 C 12.404,235.209 12.7373,236.209 12.5,237.5C 11.596,236.791 11.2627,235.791 11.5,234.5 Z"/></g>
<g><path style="opacity:0.027" fill="#4270bf" d="M 12.5,237.5 C 12.8333,237.5 13.1667,237.5 13.5,237.5C 13.1667,241.5 12.8333,241.5 12.5,237.5 Z"/></g>
<g><path style="opacity:0.024" fill="#648fd5" d="M 357.5,238.5 C 358.833,239.5 358.833,240.5 357.5,241.5C 357.5,240.5 357.5,239.5 357.5,238.5 Z"/></g>
<g><path style="opacity:0.025" fill="#6799d8" d="M 356.5,241.5 C 356.833,241.5 357.167,241.5 357.5,241.5C 357.737,242.791 357.404,243.791 356.5,244.5C 356.5,243.5 356.5,242.5 356.5,241.5 Z"/></g>
<g><path style="opacity:0.024" fill="#699ad9" d="M 355.5,244.5 C 355.833,244.5 356.167,244.5 356.5,244.5C 356.167,248.5 355.833,248.5 355.5,244.5 Z"/></g>
<g><path style="opacity:0.016" fill="#639dda" d="M 18.5,252.5 C 18.631,253.239 18.4643,253.906 18,254.5C 17.3083,253.563 17.475,252.897 18.5,252.5 Z"/></g>
<g><path style="opacity:0.008" fill="#a5c0e8" d="M 349.5,262.5 C 349.369,261.761 349.536,261.094 350,260.5C 350.692,261.437 350.525,262.103 349.5,262.5 Z"/></g>
<g><path style="opacity:0.024" fill="#5c7dc9" d="M 22.5,261.5 C 22.5,262.167 22.5,262.833 22.5,263.5C 21.1667,262.833 21.1667,262.167 22.5,261.5 Z"/></g>
<g><path style="opacity:0.004" fill="#9fc0e7" d="M 349.5,262.5 C 349.672,263.492 349.338,264.158 348.5,264.5C 348.328,263.508 348.662,262.842 349.5,262.5 Z"/></g>
<g><path style="opacity:0.016" fill="#5891d5" d="M 22.5,263.5 C 22.8333,263.5 23.1667,263.5 23.5,263.5C 23.5,264.167 23.5,264.833 23.5,265.5C 22.6618,265.158 22.3284,264.492 22.5,263.5 Z"/></g>
<g><path style="opacity:0.008" fill="#4179c9" d="M 348.5,264.5 C 348.672,265.492 348.338,266.158 347.5,266.5C 347.328,265.508 347.662,264.842 348.5,264.5 Z"/></g>
<g><path style="opacity:0.016" fill="#5891d5" d="M 23.5,265.5 C 23.8333,265.5 24.1667,265.5 24.5,265.5C 24.5,266.167 24.5,266.833 24.5,267.5C 23.6618,267.158 23.3284,266.492 23.5,265.5 Z"/></g>
<g><path style="opacity:0.008" fill="#aac6ea" d="M 347.5,266.5 C 347.672,267.492 347.338,268.158 346.5,268.5C 346.328,267.508 346.662,266.842 347.5,266.5 Z"/></g>
<g><path style="opacity:0.024" fill="#5f96d7" d="M 24.5,267.5 C 24.8333,267.5 25.1667,267.5 25.5,267.5C 25.5,268.167 25.5,268.833 25.5,269.5C 24.6618,269.158 24.3284,268.492 24.5,267.5 Z"/></g>
<g><path style="opacity:0.004" fill="#9fc0e7" d="M 346.5,268.5 C 346.672,269.492 346.338,270.158 345.5,270.5C 345.328,269.508 345.662,268.842 346.5,268.5 Z"/></g>
<g><path style="opacity:0.024" fill="#5f96d7" d="M 25.5,269.5 C 25.8333,269.5 26.1667,269.5 26.5,269.5C 26.5,270.167 26.5,270.833 26.5,271.5C 25.6618,271.158 25.3284,270.492 25.5,269.5 Z"/></g>
<g><path style="opacity:0.004" fill="#9fc0e7" d="M 345.5,270.5 C 345.672,271.492 345.338,272.158 344.5,272.5C 344.328,271.508 344.662,270.842 345.5,270.5 Z"/></g>
<g><path style="opacity:0.016" fill="#5479c7" d="M 26.5,271.5 C 26.8333,271.5 27.1667,271.5 27.5,271.5C 27.5,272.167 27.5,272.833 27.5,273.5C 26.6618,273.158 26.3284,272.492 26.5,271.5 Z"/></g>
<g><path style="opacity:0.024" fill="#3a84d0" d="M 344.5,272.5 C 343.833,273.167 343.833,273.167 344.5,272.5 Z"/></g>
<g><path style="opacity:0.012" fill="#74a8de" d="M 27.5,273.5 C 27.8333,273.5 28.1667,273.5 28.5,273.5C 28.1667,276.167 27.8333,276.167 27.5,273.5 Z"/></g>
<g><path style="opacity:0.024" fill="#6395d5" d="M 342.5,273.5 C 342.833,273.5 343.167,273.5 343.5,273.5C 343.672,274.492 343.338,275.158 342.5,275.5C 342.5,274.833 342.5,274.167 342.5,273.5 Z"/></g>
<g><path style="opacity:0.016" fill="#9db5e2" d="M 341.5,275.5 C 341.833,275.5 342.167,275.5 342.5,275.5C 342.167,278.167 341.833,278.167 341.5,275.5 Z"/></g>
<g><path style="opacity:0.027" fill="#5394d6" d="M 337.5,282.5 C 338.833,283.167 338.833,283.167 337.5,282.5 Z"/></g>
<g><path style="opacity:0.016" fill="#5473be" d="M 336.5,283.5 C 336.833,283.5 337.167,283.5 337.5,283.5C 337.167,286.167 336.833,286.167 336.5,283.5 Z"/></g>
<g><path style="opacity:0.024" fill="#6395d5" d="M 332.5,289.5 C 333.833,290.167 333.833,290.833 332.5,291.5C 332.5,290.833 332.5,290.167 332.5,289.5 Z"/></g>
<g><path style="opacity:0.031" fill="#5293d6" d="M 331.5,291.5 C 331.833,291.5 332.167,291.5 332.5,291.5C 332.315,292.17 331.981,292.17 331.5,291.5 Z"/></g>
<g><path style="opacity:0.016" fill="#6a85c9" d="M 327.5,296.5 C 328.715,297.779 328.382,298.779 326.5,299.5C 326.5,298.833 326.5,298.167 326.5,297.5C 327.167,297.5 327.5,297.167 327.5,296.5 Z"/></g>
<g><path style="opacity:0.027" fill="#7fb0e1" d="M 325.5,299.5 C 325.833,299.5 326.167,299.5 326.5,299.5C 326.315,300.17 325.981,300.17 325.5,299.5 Z"/></g>
<g><path style="opacity:0.031" fill="#5293d6" d="M 324.5,300.5 C 324.833,300.5 325.167,300.5 325.5,300.5C 325.315,301.17 324.981,301.17 324.5,300.5 Z"/></g>
<g><path style="opacity:0.004" fill="#94b2e1" d="M 323.5,301.5 C 323.833,301.5 324.167,301.5 324.5,301.5C 323.968,304.46 323.301,304.793 322.5,302.5C 323.167,302.5 323.5,302.167 323.5,301.5 Z"/></g>
<g><path style="opacity:0.004" fill="#7883c7" d="M 49.5,303.5 C 50.1667,303.5 50.5,303.833 50.5,304.5C 50.2533,306.975 49.5866,306.975 48.5,304.5C 48.6236,303.893 48.9569,303.56 49.5,303.5 Z"/></g>
<g><path style="opacity:0.035" fill="#75a9de" d="M 318.5,307.5 C 319.833,308.167 319.833,308.167 318.5,307.5 Z"/></g>
<g><path style="opacity:0.031" fill="#5293d6" d="M 317.5,308.5 C 317.833,308.5 318.167,308.5 318.5,308.5C 318.315,309.17 317.981,309.17 317.5,308.5 Z"/></g>
<g><path style="opacity:0.016" fill="#0e5cc1" d="M 316.5,309.5 C 316.833,309.5 317.167,309.5 317.5,309.5C 317.315,310.17 316.981,310.17 316.5,309.5 Z"/></g>
<g><path style="opacity:0.027" fill="#3a85d0" d="M 315.5,310.5 C 315.833,310.5 316.167,310.5 316.5,310.5C 316.315,311.17 315.981,311.17 315.5,310.5 Z"/></g>
<g><path style="opacity:0.027" fill="#3a85d0" d="M 314.5,311.5 C 314.833,311.5 315.167,311.5 315.5,311.5C 315.315,312.17 314.981,312.17 314.5,311.5 Z"/></g>
<g><path style="opacity:0.027" fill="#3a85d0" d="M 313.5,312.5 C 313.833,312.5 314.167,312.5 314.5,312.5C 314.315,313.17 313.981,313.17 313.5,312.5 Z"/></g>
<g><path style="opacity:0.027" fill="#3a85d0" d="M 312.5,313.5 C 312.833,313.5 313.167,313.5 313.5,313.5C 313.315,314.17 312.981,314.17 312.5,313.5 Z"/></g>
<g><path style="opacity:0.024" fill="#3a84d0" d="M 311.5,314.5 C 311.833,314.5 312.167,314.5 312.5,314.5C 312.315,315.17 311.981,315.17 311.5,314.5 Z"/></g>
<g><path style="opacity:0.024" fill="#3a84d0" d="M 310.5,315.5 C 310.833,315.5 311.167,315.5 311.5,315.5C 311.315,316.17 310.981,316.17 310.5,315.5 Z"/></g>
<g><path style="opacity:0.024" fill="#3a84d0" d="M 309.5,316.5 C 309.833,316.5 310.167,316.5 310.5,316.5C 310.315,317.17 309.981,317.17 309.5,316.5 Z"/></g>
<g><path style="opacity:0.024" fill="#3a84d0" d="M 308.5,317.5 C 308.833,317.5 309.167,317.5 309.5,317.5C 309.315,318.17 308.981,318.17 308.5,317.5 Z"/></g>
<g><path style="opacity:0.027" fill="#3a85d0" d="M 307.5,318.5 C 307.833,318.5 308.167,318.5 308.5,318.5C 308.315,319.17 307.981,319.17 307.5,318.5 Z"/></g>
<g><path style="opacity:0.035" fill="#75a9de" d="M 306.5,319.5 C 306.833,319.5 307.167,319.5 307.5,319.5C 307.315,320.17 306.981,320.17 306.5,319.5 Z"/></g>
<g><path style="opacity:0.031" fill="#5293d6" d="M 305.5,320.5 C 305.833,320.5 306.167,320.5 306.5,320.5C 306.315,321.17 305.981,321.17 305.5,320.5 Z"/></g>
<g><path style="opacity:0.008" fill="#5f77c2" d="M 68.5,322.5 C 69.1667,322.5 69.5,322.833 69.5,323.5C 68.5029,324.713 67.5029,324.546 66.5,323C 67.0944,322.536 67.7611,322.369 68.5,322.5 Z"/></g>
<g><path style="opacity:0.004" fill="#91a2d5" d="M 300.5,324.5 C 302.975,324.747 302.975,325.413 300.5,326.5C 299.893,326.376 299.56,326.043 299.5,325.5C 300.167,325.5 300.5,325.167 300.5,324.5 Z"/></g>
<g><path style="opacity:0.024" fill="#3a84d0" d="M 289.5,333.5 C 290.833,334.167 290.833,334.167 289.5,333.5 Z"/></g>
<g><path style="opacity:0.012" fill="#6895d7" d="M 287.5,334.5 C 288.167,334.5 288.833,334.5 289.5,334.5C 288.833,335.833 288.167,335.833 287.5,334.5 Z"/></g>
<g><path style="opacity:0.016" fill="#5891d5" d="M 281.5,339.5 C 281.5,339.167 281.5,338.833 281.5,338.5C 284.167,338.833 284.167,339.167 281.5,339.5 Z"/></g>
<g><path style="opacity:0.027" fill="#5394d6" d="M 280.5,339.5 C 280.833,339.5 281.167,339.5 281.5,339.5C 281.315,340.17 280.981,340.17 280.5,339.5 Z"/></g>
<g><path style="opacity:0.012" fill="#6ea3dc" d="M 278.5,341.5 C 278.5,341.167 278.5,340.833 278.5,340.5C 279.167,340.5 279.833,340.5 280.5,340.5C 280.158,341.338 279.492,341.672 278.5,341.5 Z"/></g>
<g><path style="opacity:0.024" fill="#76aadf" d="M 278.5,341.5 C 277.833,342.167 277.833,342.167 278.5,341.5 Z"/></g>
<g><path style="opacity:0.027" fill="#5394d6" d="M 275.5,342.5 C 276.833,343.167 276.833,343.167 275.5,342.5 Z"/></g>
<g><path style="opacity:0.012" fill="#6895d7" d="M 273.5,343.5 C 274.167,343.5 274.833,343.5 275.5,343.5C 274.833,344.833 274.167,344.833 273.5,343.5 Z"/></g>
<g><path style="opacity:0.027" fill="#6f9dda" d="M 123.5,355.5 C 123.5,355.833 123.5,356.167 123.5,356.5C 119.5,356.167 119.5,355.833 123.5,355.5 Z"/></g>
<g><path style="opacity:0.027" fill="#73a1db" d="M 123.5,356.5 C 124.239,356.369 124.906,356.536 125.5,357C 124.563,357.692 123.897,357.525 123.5,356.5 Z"/></g>
<g><path style="opacity:0.027" fill="#4d8ed4" d="M 126.5,358.5 C 126.897,357.475 127.563,357.308 128.5,358C 127.906,358.464 127.239,358.631 126.5,358.5 Z"/></g>
<g><path style="opacity:0.027" fill="#5b98d8" d="M 129.5,359.5 C 129.897,358.475 130.563,358.308 131.5,359C 130.906,359.464 130.239,359.631 129.5,359.5 Z"/></g>
<g><path style="opacity:0.031" fill="#6b96d8" d="M 135.5,359.5 C 135.5,359.833 135.5,360.167 135.5,360.5C 131.5,360.167 131.5,359.833 135.5,359.5 Z"/></g>
<g><path style="opacity:0.027" fill="#74a3dc" d="M 135.5,360.5 C 136.791,360.263 137.791,360.596 138.5,361.5C 137.209,361.737 136.209,361.404 135.5,360.5 Z"/></g>
<g><path style="opacity:0.016" fill="#4f81cf" d="M 138.5,361.5 C 140.099,361.232 141.432,361.566 142.5,362.5C 140.901,362.768 139.568,362.434 138.5,361.5 Z"/></g>
<g><path style="opacity:0.024" fill="#5c95d7" d="M 142.5,362.5 C 144.099,362.232 145.432,362.566 146.5,363.5C 144.901,363.768 143.568,363.434 142.5,362.5 Z"/></g>
<g><path style="opacity:0.024" fill="#6c9dda" d="M 224.5,363.5 C 224.5,363.167 224.5,362.833 224.5,362.5C 229.833,362.833 229.833,363.167 224.5,363.5 Z"/></g>
<g><path style="opacity:0.008" fill="#5d89d1" d="M 146.5,363.5 C 148.415,363.216 150.081,363.549 151.5,364.5C 149.585,364.784 147.919,364.451 146.5,363.5 Z"/></g>
<g><path style="opacity:0.024" fill="#577fcc" d="M 219.5,364.5 C 220.919,363.549 222.585,363.216 224.5,363.5C 223.081,364.451 221.415,364.784 219.5,364.5 Z"/></g>
<g><path style="opacity:0.024" fill="#4979c9" d="M 151.5,364.5 C 153.199,364.34 154.866,364.506 156.5,365C 154.613,365.78 152.946,365.613 151.5,364.5 Z"/></g>
<g><path style="opacity:0.024" fill="#4f7fcb" d="M 213.5,365.5 C 215.265,364.539 217.265,364.205 219.5,364.5C 217.735,365.461 215.735,365.795 213.5,365.5 Z"/></g>
<g><path style="opacity:0.031" fill="#4b85d1" d="M 163.5,366.5 C 161.473,366.662 159.473,366.495 157.5,366C 159.712,365.211 161.712,365.378 163.5,366.5 Z"/></g>
<g><path style="opacity:0.031" fill="#5d8dd4" d="M 207.5,366.5 C 209.265,365.539 211.265,365.205 213.5,365.5C 211.735,366.461 209.735,366.795 207.5,366.5 Z"/></g>
<g><path style="opacity:0.004" fill="#9dbce6" d="M 207.5,366.5 C 203.689,367.645 199.689,367.812 195.5,367C 199.486,366.501 203.486,366.334 207.5,366.5 Z"/></g>
<g><path style="opacity:0.008" fill="#a2b7e3" d="M 176.5,367.5 C 182.509,367.334 188.509,367.501 194.5,368C 188.319,368.819 182.319,368.653 176.5,367.5 Z"/></g>
</svg>
