<svg width="16" height="16" viewBox="0 0 16 16" fill="none" xmlns="http://www.w3.org/2000/svg">
    <g clip-path="url(#11kchmjvka)" stroke="#210803" stroke-linecap="round" stroke-linejoin="round">
        <path d="M11.334 1.333H4.667a3.333 3.333 0 0 0-3.333 3.333v6.667a3.333 3.333 0 0 0 3.333 3.333h6.667a3.333 3.333 0 0 0 3.333-3.333V4.666a3.333 3.333 0 0 0-3.333-3.333z"/>
        <path d="M10.667 7.58a2.667 2.667 0 1 1-5.276.783 2.667 2.667 0 0 1 5.276-.783zM11.666 4.333h.007"/>
    </g>
    <defs>
        <clipPath id="11kchmjvka">
            <path fill="#fff" d="M0 0h16v16H0z"/>
        </clipPath>
    </defs>
</svg>
